<svg xmlns="http://www.w3.org/2000/svg" viewBox="0 0 64 64" stroke-width="3" stroke="currentColor" fill="none"><path d="M54.39,41.87V21.22a4.28,4.28,0,0,0-2.22-3.75L34.26,7.58a5.17,5.17,0,0,0-5,0L11.85,17.45a4.29,4.29,0,0,0-.08,7.43L30,35.69a3.44,3.44,0,0,0,3.44,0l10.74-6.07a.42.42,0,0,1,.64.37l.08,8.62a.84.84,0,0,1-.42.75L32.17,46.67a.83.83,0,0,1-.86,0L16.05,37.92a4.34,4.34,0,0,0-5,1.09c-2.19,2.41-1.51,5.05-.56,5.89.76.67,13.85,8.45,19.09,11.56a4.27,4.27,0,0,0,4.3,0L51.78,46.35A5.16,5.16,0,0,0,54.39,41.87Z"/><path d="M31.3,17l-6.2,3.76a.86.86,0,0,0,0,1.47L31.3,26.1a.84.84,0,0,0,.88,0l6.58-3.81a.85.85,0,0,0,0-1.48L32.18,17A.87.87,0,0,0,31.3,17Z"/></svg>