<svg id="Layer_1" data-name="Layer 1" xmlns="http://www.w3.org/2000/svg" viewBox="0 0 64 64"><path d="M13.9,13.21H42.18a3,3,0,0,1,3,3v38a2,2,0,0,1-2,2H14.65a1,1,0,0,1-1-1V13.46A.25.25,0,0,1,13.9,13.21Z" fill="none" stroke="#000" stroke-miterlimit="10" stroke-width="3"/><path d="M13.65,13.21c0-4.55,1.61-5.39,5.17-5.39H46.59a3.39,3.39,0,0,1,3.76,3.76V48.91a1.88,1.88,0,0,1-1.88,1.88H45.18" fill="none" stroke="#000" stroke-miterlimit="10" stroke-width="3"/><path d="M23.94,35.45V21.28a.33.33,0,0,1,.51-.27L35.6,28.09a.33.33,0,0,1,0,.55L24.45,35.73A.33.33,0,0,1,23.94,35.45Z" fill="none" stroke="#000" stroke-miterlimit="10" stroke-width="3"/><line x1="22.93" y1="43.48" x2="35.9" y2="43.48" fill="none" stroke="#000" stroke-linecap="round" stroke-linejoin="round" stroke-width="3"/><line x1="22.93" y1="48.88" x2="35.9" y2="48.88" fill="none" stroke="#000" stroke-linecap="round" stroke-linejoin="round" stroke-width="3"/></svg>