<svg xmlns="http://www.w3.org/2000/svg" viewBox="0 0 64 64" stroke-width="3" stroke="currentColor" fill="none"><path d="M45.67,20.35l-7.22,9.54A5.58,5.58,0,0,1,34,25.34l9.5-7,.12-.1Z"/><path d="M25.86,31.27l-8.3,6C11.9,36.73,9.17,32,10.17,28L18.82,24"/><path d="M32.28,37.87,26,46c-5.31-.48-8.12-3.37-8.44-8.7l8.3-6"/><path d="M48.83,23.6l-2.37,5.07-.76,1.62-10.77,23c-4.51,1-8.6-2-8.93-7.33l6.28-8.13,5.86-7.58.31-.4,7.22-9.54h0"/><path d="M34,25.34l-8.17,5.93c-4-1.41-6.41-3.78-7-7.25l9.65-4.41"/><path d="M43.64,18.26l-.12.1-9.5,7a8.5,8.5,0,0,1-5.55-5.73l11.4-5.21"/><path d="M51,22.19a6.53,6.53,0,0,1-1.18.93,7,7,0,0,1-1,.48l-2.37-2.44-.79-.81-2-2.09-.69-.7L39.87,14.4a8.76,8.76,0,0,1,.52-1A6.9,6.9,0,1,1,51,22.19Z"/><line x1="28.47" y1="19.61" x2="28.27" y2="19.41"/><path d="M43.47,35.06c-2.66-.22-4.33-2-5-5.17"/><line x1="18.82" y1="24.02" x2="18.65" y2="23.84"/><path d="M38.76,44.55c-3.2-.34-5.22-2.82-6.48-6.68"/><path d="M38.45,29.89l-.31.4-5.86,7.58a8,8,0,0,1-6.41-6.6L34,25.34A5.58,5.58,0,0,0,38.45,29.89Z"/><line x1="43.35" y1="23.55" x2="43.36" y2="23.55"/></svg>