<svg xmlns="http://www.w3.org/2000/svg" viewBox="0 0 64 64" stroke-width="3" stroke="currentColor" fill="none"><path d="M4.79,14.88V48.5h16.4S33,49.31,33,38.1c0,0-.25-5.82-5.48-7.88a9,9,0,0,0,3.76-7.79s.84-7.53-9.13-7.55S4.79,14.88,4.79,14.88Z"/><path d="M12.07,20.51v7.64H18.9S24,28.51,24,24.33s-5.13-3.82-5.13-3.82Z"/><path d="M12.07,34.1v7.65h8.4s5.13.36,5.13-3.83-5.13-3.82-5.13-3.82Z"/><path d="M42.74,37.89H60.25s.35-14.47-11.5-14.47-13.13,9-12.68,14.47,4,11.3,12.06,11.25,11.14-5.55,11.7-8H53.67S52.88,44,48.58,44,42.89,41.08,42.74,37.89Z"/><path d="M53.54,33.6a5.41,5.41,0,0,0-10.82,0Z"/><rect x="41.1" y="16" width="14.43" height="3.93"/></svg>