<svg xmlns="http://www.w3.org/2000/svg" viewBox="0 0 64 64" stroke-width="3" stroke="currentColor" fill="none"><path d="M52.35,57.57H11.65v-50a.1.1,0,0,1,.16-.08l4.11,3.85a.12.12,0,0,0,.13,0l3.3-3.89a.09.09,0,0,1,.12,0l3.72,3.9a.11.11,0,0,0,.13,0l3.29-3.89a.09.09,0,0,1,.13,0l2.86,3.87a.11.11,0,0,0,.14,0L33,7.46a.09.09,0,0,1,.13,0l2.69,3.86a.1.1,0,0,0,.14,0l2.88-3.86a.1.1,0,0,1,.14,0l2.85,3.86a.1.1,0,0,0,.14,0L44.7,7.48a.09.09,0,0,1,.15,0l2.25,3.84a.11.11,0,0,0,.13,0l5-3.87a.1.1,0,0,1,.15.09Z" stroke-linecap="round"/><path d="M32.09,19.31,34.8,24.8a.08.08,0,0,0,.07.05l6.06.88a.1.1,0,0,1,0,.17L36.6,30.17a.16.16,0,0,0,0,.09l1,6a.11.11,0,0,1-.15.11l-5.41-2.85a.09.09,0,0,0-.1,0L26.54,36.4a.11.11,0,0,1-.15-.11l1-6a.16.16,0,0,0,0-.09L23,25.9a.1.1,0,0,1,.05-.17l6.06-.88a.08.08,0,0,0,.07-.05l2.71-5.49A.1.1,0,0,1,32.09,19.31Z" stroke-linecap="round"/><line x1="19.42" y1="43.54" x2="46.02" y2="43.54" stroke-linecap="round"/><line x1="19.42" y1="49.78" x2="46.02" y2="49.78" stroke-linecap="round"/></svg>