<svg xmlns="http://www.w3.org/2000/svg" viewBox="0 0 64 64" stroke-width="3" stroke="currentColor" fill="none"><path d="M38.18,44.11H20l-5.79,4.68.06-4.68H12.17a1.36,1.36,0,0,1-1.36-1.37V23a1.36,1.36,0,0,1,1.37-1.36h26A1.36,1.36,0,0,1,39.58,23V42.71A1.4,1.4,0,0,1,38.18,44.11Z"/><line x1="15.05" y1="27.2" x2="34.5" y2="27.2"/><line x1="15.05" y1="32.26" x2="25.7" y2="32.26"/><line x1="15.05" y1="37.32" x2="30.07" y2="37.32"/><path d="M42.14,36H44l5.79,3.92L49.77,36h2.06a1.36,1.36,0,0,0,1.36-1.36V14.89a1.36,1.36,0,0,0-1.37-1.36h-26a1.36,1.36,0,0,0-1.36,1.36V19"/></svg>