<svg xmlns="http://www.w3.org/2000/svg" viewBox="0 0 64 64" stroke-width="3" stroke="currentColor" fill="none"><path d="M43.32,30.08a7.86,7.86,0,0,1,3.11-.64,8,8,0,1,1,0,16,7.81,7.81,0,0,1-3.1-.63"/><path d="M17.18,24.82H43.32a0,0,0,0,1,0,0V41.7A11.36,11.36,0,0,1,32,53.06H28.54A11.36,11.36,0,0,1,17.18,41.7V24.82A0,0,0,0,1,17.18,24.82Z"/><line x1="9.59" y1="53.06" x2="52.17" y2="53.06" stroke-linecap="round"/><path d="M24.36,19.63c0-5,4-5,4-10.09" stroke-linecap="round"/><path d="M32.66,19.47c.45-6.13,4.44-5.83,4.89-12" stroke-linecap="round"/></svg>