<svg xmlns="http://www.w3.org/2000/svg" viewBox="0 0 64 64" stroke-width="3" stroke="currentColor" fill="none"><path d="M34.07,50.93S53.86,44.38,45.68,26.6c0,0-4.8-11.46-19.31-13.27S8.3,20.8,8.3,20.8,1.81,33.68,13.1,35c1.62.19,5-.56,6.4,1.33s.29,4.2,0,8.8C19.34,47.69,21.27,53.87,34.07,50.93Z" stroke-linecap="round"/><circle cx="17.2" cy="24.01" r="3.59" stroke-linecap="round"/><circle cx="38.02" cy="28.02" r="2.43" stroke-linecap="round"/><circle cx="38.02" cy="39.04" r="2.43" stroke-linecap="round"/><circle cx="28.14" cy="44.38" r="2.43" stroke-linecap="round"/><path d="M54,12.62c-.69,3.31-2.07,10.9-2.18,27a.41.41,0,0,0,.41.41h4.91a.41.41,0,0,0,.41-.42c-.1-2.82-.74-18.12-2.75-27A.41.41,0,0,0,54,12.62Z" stroke-linecap="round"/><path d="M57.48,43.8c0,1.53-1.92,7.37-2.78,7.37s-2.78-5.84-2.78-7.37a2.78,2.78,0,1,1,5.56,0Z" stroke-linecap="round"/></svg>