<svg xmlns="http://www.w3.org/2000/svg" viewBox="0 0 64 64" stroke-width="3" stroke="currentColor" fill="none"><circle cx="32.16" cy="31.89" r="12.4" stroke-linecap="round"/><line x1="40.81" y1="23.03" x2="48.41" y2="15.9" stroke-linecap="round"/><line x1="44.77" y1="31.89" x2="55.09" y2="31.89" stroke-linecap="round"/><line x1="40.78" y1="40.8" x2="48.3" y2="48.22" stroke-linecap="round"/><line x1="32.16" y1="45.17" x2="32.16" y2="55.04" stroke-linecap="round"/><line x1="23.3" y1="40.57" x2="16.19" y2="47.87" stroke-linecap="round"/><line x1="19.76" y1="31.89" x2="8.91" y2="31.89" stroke-linecap="round"/><line x1="23.44" y1="23.07" x2="16.1" y2="15.87" stroke-linecap="round"/><line x1="32.16" y1="19.49" x2="32.16" y2="9.02" stroke-linecap="round"/><line x1="28.11" y1="8.96" x2="36.21" y2="8.96" stroke-linecap="round"/><line x1="45.4" y1="13.19" x2="51.42" y2="18.61" stroke-linecap="round"/><line x1="19.03" y1="13.09" x2="13.01" y2="18.51" stroke-linecap="round"/><line x1="55.09" y1="35.83" x2="55.09" y2="27.73" stroke-linecap="round"/><line x1="8.91" y1="35.94" x2="8.91" y2="27.84" stroke-linecap="round"/><line x1="45.55" y1="51.19" x2="51.27" y2="45.46" stroke-linecap="round"/><line x1="18.81" y1="50.99" x2="13.09" y2="45.26" stroke-linecap="round"/><line x1="28.11" y1="55.04" x2="36.21" y2="55.04" stroke-linecap="round"/></svg>