<svg xmlns="http://www.w3.org/2000/svg" viewBox="0 0 64 64" stroke-width="3" stroke="currentColor" fill="none"><path d="M12.91,31.8V26.1a19.09,19.09,0,0,1,38.18,0v5.7" stroke-linecap="round"/><path d="M12.06,31.8h4.7a0,0,0,0,1,0,0V45.18a0,0,0,0,1,0,0h-4.7a3,3,0,0,1-3-3V34.8A3,3,0,0,1,12.06,31.8Z" stroke-linecap="round"/><path d="M50.24,31.8h4.7a0,0,0,0,1,0,0V45.18a0,0,0,0,1,0,0h-4.7a3,3,0,0,1-3-3V34.8A3,3,0,0,1,50.24,31.8Z" transform="translate(102.18 76.98) rotate(180)" stroke-linecap="round"/><path d="M51.7,45.56v5a4,4,0,0,1-4,4H36.56" stroke-linecap="round"/><rect x="28.45" y="51.92" width="8.1" height="5.07" rx="2" stroke-linecap="round"/></svg>