<svg id="Layer_1" data-name="Layer 1" xmlns="http://www.w3.org/2000/svg" viewBox="0 0 64 64"><path d="M18.42,57.57s6.82-5,3.59-16.44S25,25,25,25s4.11-5.22,15.4-2.61,14.17-.87,16.62-2.7" fill="none" stroke="#000" stroke-linecap="round" stroke-miterlimit="10" stroke-width="3"/><path d="M45.58,6.43S38.76,11.48,42,22.87s-3,16.18-3,16.18-4.11,5.22-15.4,2.61S9.45,42.53,7,44.36" fill="none" stroke="#000" stroke-linecap="round" stroke-miterlimit="10" stroke-width="3"/><line x1="21.62" y1="30.63" x2="32.27" y2="42.2" fill="none" stroke="#000" stroke-linecap="round" stroke-miterlimit="10" stroke-width="3"/><line x1="25.18" y1="24.73" x2="38.82" y2="39.27" fill="none" stroke="#000" stroke-linecap="round" stroke-miterlimit="10" stroke-width="3"/><line x1="31.6" y1="21.82" x2="42.34" y2="33.49" fill="none" stroke="#000" stroke-linecap="round" stroke-miterlimit="10" stroke-width="3"/><line x1="41.4" y1="13.96" x2="49.82" y2="23.11" fill="none" stroke="#000" stroke-linecap="round" stroke-miterlimit="10" stroke-width="3"/><line x1="44.08" y1="7.98" x2="55.72" y2="20.64" fill="none" stroke="#000" stroke-linecap="round" stroke-miterlimit="10" stroke-width="3"/><line x1="8.3" y1="43.34" x2="19.89" y2="56.07" fill="none" stroke="#000" stroke-linecap="round" stroke-miterlimit="10" stroke-width="3"/><line x1="13.64" y1="40.95" x2="22.49" y2="50.57" fill="none" stroke="#000" stroke-linecap="round" stroke-miterlimit="10" stroke-width="3"/></svg>