<svg xmlns="http://www.w3.org/2000/svg" viewBox="0 0 64 64" stroke-width="3" stroke="currentColor" fill="none"><rect x="6.57" y="17.07" width="50.86" height="29.87"/><path d="M16.62,16.92a10.05,10.05,0,0,1-10,10"/><path d="M16.91,46.93a10,10,0,0,0-10-10"/><path d="M47.56,16.92a10,10,0,0,0,10,10"/><path d="M47.38,46.93a10,10,0,0,1,10-10"/><path d="M37.22,27.24a4.91,4.91,0,0,0-4.6-3c-4.15,0-4.31,3-4.31,3s-.62,3.66,4.46,4.05c5.28.41,4.45,4.05,4.45,4.05a4.41,4.41,0,0,1-4.45,3.38c-3.92.2-5.13-3.92-5.13-3.92"/><line x1="32.62" y1="21.64" x2="32.62" y2="41.76"/></svg>