<svg xmlns="http://www.w3.org/2000/svg" viewBox="0 0 64 64" stroke-width="3" stroke="currentColor" fill="none"><path d="M32.94,57.93H10.41a3.07,3.07,0,0,1-3.07-3.06V9.13a3.07,3.07,0,0,1,3.07-3.06H31.62a3.07,3.07,0,0,1,3.07,3.06l-.12,9.34.08,16.26,0,4.42"/><line x1="16.02" y1="10.34" x2="22.1" y2="10.34" stroke-linecap="round"/><line x1="19.49" y1="53.47" x2="22.54" y2="53.47" stroke-linecap="round"/><line x1="25.88" y1="10.34" x2="26.01" y2="10.34" stroke-linecap="round"/><line x1="7.34" y1="49.36" x2="33.88" y2="49.36"/><line x1="7.34" y1="14.75" x2="34.69" y2="14.75"/><path d="M56.57,57.93H32.94l.81-14.74a10.64,10.64,0,0,1,10.62-10h1.25a10.13,10.13,0,0,1,10.11,9.56Z"/><path d="M41.94,33.56l-4.22-8a.27.27,0,0,1,.29-.4l2.55.42a25.2,25.2,0,0,0,8.13,0l2.81-.45a.27.27,0,0,1,.28.41l-4.63,7.77"/><line x1="44.75" y1="29.92" x2="44.19" y2="33.15" stroke-linecap="round"/><path d="M49.53,41.21a4.62,4.62,0,0,0-4.34-2.81c-3.91,0-4.06,2.81-4.06,2.81s-.59,3.45,4.2,3.82c5,.38,4.2,3.82,4.2,3.82A4.16,4.16,0,0,1,45.33,52c-3.69.19-4.84-3.69-4.84-3.69"/><line x1="45.19" y1="35.92" x2="45.19" y2="54.9"/></svg>