<svg xmlns="http://www.w3.org/2000/svg" viewBox="0 0 64 64" stroke-width="3" stroke="currentColor" fill="none"><path d="M54.2,42.29,50,28.61l-.09-4.88c0-2.1-2.42-4.89-4.91-5.13a11.64,11.64,0,0,0-7.69,2,7.43,7.43,0,0,1-3.84,1.15H28.26a7.37,7.37,0,0,1-3.84-1.15,11.64,11.64,0,0,0-7.69-2c-2.5.24-4.91,3-4.91,5.13l-.1,4.88L7.54,42.29A4.14,4.14,0,0,0,9.9,47.75c2.72,1.19,5.61-.23,7.29-1.91l2.51-2.33c1.93-1.41,4.26-1,6.65-1h9c2.4,0,4.73-.45,6.66,1l2.5,2.33c1.68,1.68,4.21,3.53,7.3,1.91C53.93,46.65,55.18,44.44,54.2,42.29Z"/><rect x="42.84" y="29.29" width="3.85" height="3.85" rx="1.81" transform="translate(75.97 -13.55) rotate(90)"/><rect x="33.2" y="29.29" width="3.85" height="3.85" rx="1.81" transform="translate(66.33 -3.91) rotate(90)"/><rect x="38.02" y="34.11" width="3.85" height="3.85" rx="1.81" transform="translate(79.88 72.07) rotate(180)"/><rect x="38.02" y="24.47" width="3.85" height="3.85" rx="1.81" transform="translate(79.88 52.78) rotate(-180)"/><circle cx="20.54" cy="31.21" r="3.97"/><path d="M30.87,21.73s-.22-11.32,9.82-13.46"/></svg>