<svg xmlns="http://www.w3.org/2000/svg" viewBox="0 0 64 64" stroke-width="3" stroke="currentColor" fill="none"><circle cx="19.4" cy="11.54" r="5.91" stroke-linecap="round"/><path d="M12.88,54.49V41.89a2.24,2.24,0,0,0-.73-1.64l-2.19-2a1.12,1.12,0,0,1-.37-.82v-13a2.2,2.2,0,0,1,2.21-2.2H25.89a3.31,3.31,0,0,1,3.31,3.3v12a1.09,1.09,0,0,1-.3.75l-2.12,2.26a2.19,2.19,0,0,0-.6,1.5V54.49" stroke-linecap="round"/><circle cx="44.6" cy="11.54" r="5.91" stroke-linecap="round"/><path d="M38.09,54.49V41.89a2.24,2.24,0,0,0-.73-1.64l-2.19-2a1.12,1.12,0,0,1-.37-.82v-13A2.2,2.2,0,0,1,37,22.22H51.1a3.31,3.31,0,0,1,3.31,3.3v12a1.09,1.09,0,0,1-.3.75L52,40.54a2.19,2.19,0,0,0-.6,1.5V54.49" stroke-linecap="round"/></svg>