<svg xmlns="http://www.w3.org/2000/svg" viewBox="0 0 64 64" stroke-width="3" stroke="currentColor" fill="none"><polyline points="37.27 31.01 50.84 31.01 50.84 56.16 13.19 56.16 13.19 31.01 26.76 31.01" stroke-linecap="round"/><path d="M26.76,31H10.58a1,1,0,0,1-1-1v-5.2a1,1,0,0,1,1-1H53.42a1,1,0,0,1,1,1V30a1,1,0,0,1-1,1H37.27" stroke-linecap="round"/><path d="M45.73,9.86a6.5,6.5,0,0,0-3.51-1.6c-5.29-.57-7.08,8.12-9.7,14.33a.5.5,0,0,0,.65.65c6.17-2.62,14.46-4.47,14.33-9.69A5.3,5.3,0,0,0,45.73,9.86Z" stroke-linecap="round"/><path d="M21.79,7.86a6.44,6.44,0,0,0-3.5,1.6,5.32,5.32,0,0,0-1.78,3.69c-.13,5.22,8.16,7.07,14.33,9.69a.5.5,0,0,0,.65-.65C28.87,16,27.08,7.29,21.79,7.86Z" stroke-linecap="round"/><polygon points="37.27 45.78 32 42.78 26.76 45.78 26.76 23.77 37.27 23.77 37.27 45.78" stroke-linecap="round"/></svg>