<svg xmlns="http://www.w3.org/2000/svg" viewBox="0 0 64 64" stroke-width="3" stroke="currentColor" fill="none"><ellipse cx="23.07" cy="14.99" rx="15.22" ry="5.24" stroke-linecap="round"/><path d="M38.3,21.8c0,2.89-6.82,5.24-15.23,5.24S7.85,24.69,7.85,21.8" stroke-linecap="round"/><path d="M27.38,33.43c-.4,0-3.9,0-4.31,0-8.41,0-15.22-2.35-15.22-5.24" stroke-linecap="round"/><path d="M24.91,40c-.6,0-1.22,0-1.84,0-8.41,0-15.22-2.34-15.22-5.24" stroke-linecap="round"/><path d="M25.7,46.53a22.48,22.48,0,0,1-2.63.08c-8.41,0-15.22-2.35-15.22-5.24" stroke-linecap="round"/><line x1="7.85" y1="41.42" x2="7.85" y2="15.01" stroke-linecap="round"/><line x1="38.3" y1="30.01" x2="38.3" y2="14.99" stroke-linecap="round"/><ellipse cx="40.93" cy="35.82" rx="15.22" ry="5.24" stroke-linecap="round"/><path d="M56.15,42.63c0,2.9-6.81,5.24-15.22,5.24S25.7,45.53,25.7,42.63" stroke-linecap="round"/><path d="M56.15,49c0,2.9-6.81,5.25-15.22,5.25S25.7,51.91,25.7,49" stroke-linecap="round"/><line x1="25.7" y1="48.92" x2="25.7" y2="35.07" stroke-linecap="round"/><line x1="56.15" y1="49.21" x2="56.15" y2="35.64" stroke-linecap="round"/></svg>