<svg xmlns="http://www.w3.org/2000/svg" viewBox="0 0 64 64" stroke-width="3" stroke="currentColor" fill="none"><path d="M52.73,57.08H12v-50A.11.11,0,0,1,12.19,7l4.11,3.85a.11.11,0,0,0,.13,0L19.72,7a.11.11,0,0,1,.13,0l3.72,3.89a.11.11,0,0,0,.13,0L27,7a.1.1,0,0,1,.14,0L30,10.83a.1.1,0,0,0,.14,0L33.4,7a.09.09,0,0,1,.13,0l2.68,3.85a.11.11,0,0,0,.15,0L39.24,7a.1.1,0,0,1,.14,0l2.85,3.85a.1.1,0,0,0,.14,0L45.07,7a.09.09,0,0,1,.15,0l2.26,3.84a.08.08,0,0,0,.12,0l5-3.87a.1.1,0,0,1,.15.09Z" stroke-linecap="round"/><line x1="19.79" y1="43.04" x2="46.4" y2="43.04" stroke-linecap="round"/><line x1="19.79" y1="49.29" x2="46.4" y2="49.29" stroke-linecap="round"/><polyline points="27.62 17.56 33.28 26.38 38.96 17.56" stroke-linecap="round"/><line x1="33.29" y1="35.08" x2="33.29" y2="26.38" stroke-linecap="round"/><line x1="27.62" y1="31.25" x2="38.96" y2="31.25" stroke-linecap="round"/><line x1="27.74" y1="26.38" x2="38.82" y2="26.38" stroke-linecap="round"/></svg>