<svg xmlns="http://www.w3.org/2000/svg" viewBox="0 0 64 64" stroke-width="3" stroke="currentColor" fill="none"><path d="M52.35,57.08H11.65v-50A.11.11,0,0,1,11.81,7l4.11,3.85a.11.11,0,0,0,.13,0L19.35,7a.09.09,0,0,1,.12,0l3.72,3.89a.11.11,0,0,0,.13,0L26.61,7a.09.09,0,0,1,.13,0l2.86,3.87a.1.1,0,0,0,.14,0L33,7a.09.09,0,0,1,.13,0l2.69,3.85a.1.1,0,0,0,.14,0L38.86,7A.1.1,0,0,1,39,7l2.85,3.85a.1.1,0,0,0,.14,0L44.7,7a.09.09,0,0,1,.15,0l2.25,3.84a.09.09,0,0,0,.13,0L52.2,7a.1.1,0,0,1,.15.09Z" stroke-linecap="round"/><line x1="19.42" y1="43.04" x2="46.02" y2="43.04" stroke-linecap="round"/><line x1="19.42" y1="49.29" x2="46.02" y2="49.29" stroke-linecap="round"/><path d="M37.54,33.86H28c-.06,0-.1-.08-.06-.12.66-.7,3.79-4.29,2.59-7.51-1.33-3.59-.47-9.3,6-6.65" stroke-linecap="round"/><line x1="26.46" y1="26.32" x2="35.39" y2="26.32" stroke-linecap="round"/></svg>