<svg xmlns="http://www.w3.org/2000/svg" viewBox="0 0 64 64" stroke-width="3" stroke="currentColor" fill="none"><path d="M52.35,57.57H11.65v-50a.1.1,0,0,1,.16-.08l4.11,3.85a.12.12,0,0,0,.13,0l3.3-3.89a.09.09,0,0,1,.12,0l3.72,3.9a.11.11,0,0,0,.13,0l3.29-3.89a.09.09,0,0,1,.13,0l2.86,3.87a.11.11,0,0,0,.14,0L33,7.46a.09.09,0,0,1,.13,0l2.69,3.86a.1.1,0,0,0,.14,0l2.88-3.86a.1.1,0,0,1,.14,0l2.85,3.86a.1.1,0,0,0,.14,0L44.7,7.48a.09.09,0,0,1,.15,0l2.25,3.84a.11.11,0,0,0,.13,0l5-3.87a.1.1,0,0,1,.15.09Z" stroke-linecap="round"/><line x1="19.42" y1="43.54" x2="46.02" y2="43.54" stroke-linecap="round"/><line x1="19.42" y1="49.78" x2="46.02" y2="49.78" stroke-linecap="round"/><path d="M27.28,19.25h2.35c2.3,0,4.84.76,4.84,4.26,0,3.8-3.22,5.25-6.64,4.86a.2.2,0,0,0-.16.34l7.26,7.81" stroke-linecap="round"/><line x1="37.24" y1="19.25" x2="29.12" y2="19.25" stroke-linecap="round"/><line x1="27.4" y1="23.63" x2="37.3" y2="23.63" stroke-linecap="round"/></svg>