<svg xmlns="http://www.w3.org/2000/svg" viewBox="0 0 64 64" stroke-width="3" stroke="currentColor" fill="none"><path d="M12.05,57V46a1.16,1.16,0,0,0-1.15-1.15H8.09A1.16,1.16,0,0,1,7,43.26l6.61-18a1.17,1.17,0,0,1,1.09-.76h7a1.15,1.15,0,0,1,1.09.77l6.48,18a1.16,1.16,0,0,1-1.09,1.55h-3A1.15,1.15,0,0,0,24,46V57" stroke-linecap="round"/><circle cx="18.12" cy="12.94" r="5.91" stroke-linecap="round"/><path d="M39.81,57V46a1.16,1.16,0,0,0-1.16-1.15h-2.8a1.17,1.17,0,0,1-1.09-1.56l6.62-18a1.16,1.16,0,0,1,1.08-.76h7a1.16,1.16,0,0,1,1.09.77l6.47,18a1.16,1.16,0,0,1-1.08,1.55H53A1.16,1.16,0,0,0,51.79,46V57" stroke-linecap="round"/><circle cx="45.88" cy="12.94" r="5.91" stroke-linecap="round"/></svg>