<svg xmlns="http://www.w3.org/2000/svg" viewBox="0 0 64 64" stroke-width="3" stroke="currentColor" fill="none"><circle cx="17.94" cy="17.16" r="5.08" stroke-linecap="round"/><path d="M12.22,55l.12-11.77a1.89,1.89,0,0,0-.63-1.41L9.82,40.17a1,1,0,0,1-.31-.71V28.24a1.9,1.9,0,0,1,1.9-1.9H23.53a2.85,2.85,0,0,1,2.84,2.85V39.51a.94.94,0,0,1-.26.65L24.29,42.1a1.88,1.88,0,0,0-.51,1.3L23.66,55" stroke-linecap="round"/><path d="M42.88,55V45.58a1,1,0,0,0-1-1H39.47a1,1,0,0,1-.93-1.33l5.69-15.52a1,1,0,0,1,.93-.65h6a1,1,0,0,1,.94.66l5.57,15.51a1,1,0,0,1-.94,1.33H54.18a1,1,0,0,0-1,1V55" stroke-linecap="round"/><circle cx="48.1" cy="17.16" r="5.08" stroke-linecap="round"/><path d="M25.58,10.07a4,4,0,0,1,3.78-4.83c2.27-.18,3.4,2.55,3.61,3.08,0,.06.05.06.08,0,1.2-2.82,3-3,3.64-3.07,1.81-.18,4.23,1.21,3.73,4.48-.7,4.53-7.47,9.63-7.47,9.63S26.47,15,25.58,10.07Z"/></svg>