<svg xmlns="http://www.w3.org/2000/svg" viewBox="0 0 64 64" stroke-width="3" stroke="currentColor" fill="none"><circle cx="33.52" cy="39.9" r="20.42" stroke-linecap="round"/><path d="M33.65,27.91l3.64,7.38a.12.12,0,0,0,.1.07l8.15,1.19a.13.13,0,0,1,.07.23l-5.89,5.74a.11.11,0,0,0,0,.12l1.39,8.12a.14.14,0,0,1-.2.14l-7.28-3.83a.15.15,0,0,0-.13,0L26.18,50.9a.14.14,0,0,1-.2-.14l1.39-8.12a.14.14,0,0,0,0-.12l-5.89-5.74a.13.13,0,0,1,.07-.23l8.15-1.19a.12.12,0,0,0,.1-.07l3.64-7.38A.14.14,0,0,1,33.65,27.91Z" stroke-linecap="round"/><polyline points="21.48 23.75 9.89 3.67 19.97 3.67 29.04 19.38 19.97 3.67"/><polyline points="44.82 22.89 55.92 3.67 45.79 3.67 36.77 19.38" stroke-linecap="round"/></svg>