<svg xmlns="http://www.w3.org/2000/svg" viewBox="0 0 64 64" stroke-width="3" stroke="currentColor" fill="none"><path d="M56,31a23.93,23.93,0,0,1-.41,5.44,23.51,23.51,0,0,1-42.37,9" stroke-linecap="round"/><path d="M9,32.6a23.26,23.26,0,0,1,.42-5,23.51,23.51,0,0,1,42.29-9.14" stroke-linecap="round"/><polyline points="41.09 17.46 51.93 18.73 53.02 8.55" stroke-linecap="round"/><polyline points="23.54 46.19 12.7 44.92 11.61 55.1" stroke-linecap="round"/><path d="M42,40.69A10.29,10.29,0,1,1,40,23.19"/><line x1="20.26" y1="30.03" x2="37.37" y2="30.03"/><line x1="20.26" y1="35.25" x2="35.31" y2="35.25"/></svg>