<svg xmlns="http://www.w3.org/2000/svg" viewBox="0 0 64 64" stroke-width="3" stroke="currentColor" fill="none"><path d="M49.19,57.34H14.81L16,35.91A15.46,15.46,0,0,1,31.44,21.3h1.83A14.71,14.71,0,0,1,48,35.2Z"/><path d="M27.38,21.84,19.72,7.39a.5.5,0,0,1,.52-.73l4.65.77a46,46,0,0,0,14.76.05l5.11-.81a.5.5,0,0,1,.51.75L36.85,21.53"/><line x1="28.23" y1="13.15" x2="30.73" y2="21.3" stroke-linecap="round"/><line x1="35.14" y1="14.79" x2="33.79" y2="21.31" stroke-linecap="round"/><path d="M38.34,50.12H26.12a.1.1,0,0,1-.07-.16c.83-.9,4.83-5.47,3.3-9.59-1.7-4.59-.6-11.88,7.64-8.49" stroke-linecap="round"/><line x1="24.19" y1="40.49" x2="35.59" y2="40.49" stroke-linecap="round"/></svg>