<svg xmlns="http://www.w3.org/2000/svg" viewBox="0 0 64 64" stroke-width="3" stroke="currentColor" fill="none"><path d="M49.19,57.34H14.81L16,35.91A15.46,15.46,0,0,1,31.44,21.3h1.83A14.71,14.71,0,0,1,48,35.2Z"/><path d="M27.38,21.84,19.72,7.39a.5.5,0,0,1,.52-.73l4.65.77a46,46,0,0,0,14.76.05l5.11-.81a.5.5,0,0,1,.51.75L36.85,21.53"/><line x1="28.23" y1="13.15" x2="30.73" y2="21.3" stroke-linecap="round"/><line x1="35.14" y1="14.79" x2="33.79" y2="21.31" stroke-linecap="round"/><path d="M25.42,29.83h2.92c2.85,0,6,.94,6,5.28,0,4.7-4,6.5-8.22,6a.25.25,0,0,0-.2.42l9,9.67" stroke-linecap="round"/><line x1="37.77" y1="29.83" x2="27.7" y2="29.83" stroke-linecap="round"/><line x1="25.57" y1="35.26" x2="37.84" y2="35.26" stroke-linecap="round"/></svg>