<svg xmlns="http://www.w3.org/2000/svg" viewBox="0 0 64 64" stroke-width="3" stroke="currentColor" fill="none"><path d="M49.19,56.3H14.81L16,34.86A15.46,15.46,0,0,1,31.44,20.25h1.83A14.71,14.71,0,0,1,48,34.15Z"/><path d="M27.38,20.8,19.72,6.34a.49.49,0,0,1,.52-.72l4.65.77a46,46,0,0,0,14.76,0l5.11-.81a.5.5,0,0,1,.51.75L36.85,20.48"/><line x1="28.23" y1="12.1" x2="30.73" y2="20.25" stroke-linecap="round"/><line x1="35.14" y1="13.75" x2="33.79" y2="20.26" stroke-linecap="round"/><path d="M40.47,46.67A9.23,9.23,0,1,1,38.73,31"/><line x1="20.99" y1="37.1" x2="36.36" y2="37.1"/><line x1="20.99" y1="41.79" x2="34.51" y2="41.79"/></svg>