<svg xmlns="http://www.w3.org/2000/svg" viewBox="0 0 64 64" stroke-width="3" stroke="currentColor" fill="none"><rect x="8.5" y="12.5" width="47" height="39" rx="2"/><line x1="8.5" y1="20.88" x2="55.5" y2="20.88"/><path d="M28.06,30.42V41.7a.5.5,0,0,0,.8.4l9.29-5.7a.49.49,0,0,0-.07-.85L28.79,30A.51.51,0,0,0,28.06,30.42Z"/><line x1="10.5" y1="12.5" x2="17.33" y2="20.88"/><line x1="17.41" y1="12.5" x2="24.24" y2="20.88"/><line x1="24.38" y1="12.5" x2="31.21" y2="20.88"/><line x1="31.77" y1="12.5" x2="38.6" y2="20.88"/><line x1="39.15" y1="12.5" x2="45.98" y2="20.88"/><line x1="46.67" y1="12.5" x2="53.5" y2="20.88"/></svg>