<svg xmlns="http://www.w3.org/2000/svg" viewBox="0 0 64 64" stroke-width="3" stroke="currentColor" fill="none"><path d="M40.05,43.58h-28a2.92,2.92,0,0,1-2.93-2.92V16A1.85,1.85,0,0,1,11,14.17H50.08A1.85,1.85,0,0,1,51.93,16l-.06,7.75"/><path d="M39.83,49.83l-30.46,0a4.22,4.22,0,0,1-4.22-4.22V44.05a.47.47,0,0,1,.47-.47H40.05"/><path d="M58.76,49.83H39.59l.67-11.95a8.62,8.62,0,0,1,8.61-8.15h1a8.21,8.21,0,0,1,8.2,7.75Z"/><path d="M46.89,30.07l-3.42-6.45a.23.23,0,0,1,.24-.33l2.07.35a20.81,20.81,0,0,0,6.59,0l2.28-.37a.23.23,0,0,1,.23.34l-3.76,6.3"/><line x1="49.18" y1="27.11" x2="48.72" y2="29.73" stroke-linecap="round"/><path d="M53.05,36.27A3.74,3.74,0,0,0,49.53,34c-3.17,0-3.29,2.28-3.29,2.28s-.48,2.8,3.41,3.09,3.4,3.1,3.4,3.1a3.38,3.38,0,0,1-3.4,2.59c-3,.15-3.93-3-3.93-3"/><line x1="49.53" y1="31.98" x2="49.53" y2="47.37"/></svg>