<svg xmlns="http://www.w3.org/2000/svg" viewBox="0 0 64 64" stroke-width="3" stroke="currentColor" fill="none"><path d="M50.93,34.13v7.93a2.75,2.75,0,0,1-2.75,2.76H12.09A2.85,2.85,0,0,1,9.24,42V18a1.8,1.8,0,0,1,1.81-1.8H29.1"/><path d="M51.39,50.87H9.48a4.11,4.11,0,0,1-4.12-4.12V44.82H55v2.4A3.65,3.65,0,0,1,51.39,50.87Z"/><path d="M31.64,13.13H56.5a2.14,2.14,0,0,1,2.14,2.14V31.66A2.14,2.14,0,0,1,56.5,33.8H30.77a2.14,2.14,0,0,1-2.14-2.14V16.13A3,3,0,0,1,31.64,13.13Z"/><line x1="28.63" y1="17.53" x2="58.64" y2="17.53"/><line x1="28.63" y1="21.36" x2="58.64" y2="21.36"/><path d="M52.9,25.77a2.35,2.35,0,0,0-1.42.49,2.37,2.37,0,0,0-1.43-.49,2.33,2.33,0,1,0,0,4.66,2.37,2.37,0,0,0,1.43-.49,2.33,2.33,0,1,0,1.42-4.17Z"/></svg>