<svg xmlns="http://www.w3.org/2000/svg" viewBox="0 0 64 64" stroke-width="3" stroke="currentColor" fill="none"><path d="M50.28,23.29V43.94a1.74,1.74,0,0,1-1.74,1.74H11.3a1.74,1.74,0,0,1-1.74-1.74V17.85a1.74,1.74,0,0,1,1.74-1.74H37.07"/><line x1="9.56" y1="39.19" x2="50.28" y2="39.19"/><path d="M22.23,52.54a5.72,5.72,0,0,0,3-6.86"/><path d="M38.38,52.54a5.73,5.73,0,0,1-3.05-6.86"/><line x1="17.45" y1="52.54" x2="42.39" y2="52.54" stroke-linecap="round"/><circle cx="22.13" cy="25.21" r="3.53"/><path d="M29.28,39.19a7.15,7.15,0,0,0-7.15-7.14h0A7.14,7.14,0,0,0,15,39.19Z"/><path d="M53.58,23.29h-8.4L40.1,26.88a.09.09,0,0,1-.14-.07l0-3.52H37.93a.87.87,0,0,1-.86-.86V12.32a.86.86,0,0,1,.86-.86H53.58a.86.86,0,0,1,.86.86V22.43A.87.87,0,0,1,53.58,23.29Z"/></svg>