<svg xmlns="http://www.w3.org/2000/svg" viewBox="0 0 64 64" stroke-width="3" stroke="currentColor" fill="none"><path d="M45.89,25.8,53.24,22a.08.08,0,0,0,0-.15L32.38,10.53H32.3L10.74,22a.08.08,0,0,0,0,.15L31.25,33.33h.08l8.74-4.53" stroke-linecap="round"/><path d="M46.07,25.71,53.26,22a.09.09,0,0,1,.12.08v20a.1.1,0,0,1-.05.08L31.9,53.47a.09.09,0,0,1-.13-.08l-.48-20a.09.09,0,0,1,0-.08l9-4.63" stroke-linecap="round"/><path d="M31.29,33.36,10.75,22a.09.09,0,0,0-.13.07V42.23a.1.1,0,0,0,.05.08l21,11.15a.09.09,0,0,0,.13-.07Z" stroke-linecap="round"/><polyline points="19.24 17.47 40.33 28.68 40.33 36.6 43.22 35.11 46.07 33.65 46.07 25.71 24.97 14.42" stroke-linecap="round"/></svg>