<svg xmlns="http://www.w3.org/2000/svg" viewBox="0 0 64 64" stroke-width="3" stroke="currentColor" fill="none"><path d="M11,47.17,17,11a1.79,1.79,0,0,1,1.77-1.5H38.5s11.86,0,9.82,12.35A16.06,16.06,0,0,1,34.6,35.62c-2.56.14-10.87,0-10.87,0L21.44,48.53a.91.91,0,0,1-.89.74H12.81A1.81,1.81,0,0,1,11,47.17Z"/><path d="M20.77,52.45,25.91,21.3a1.81,1.81,0,0,1,1.78-1.51h15.2S54.52,19,52.82,31.05c-1.35,9.63-9.3,11.45-11.53,11.58-1.69.1-4.9,0-6.37,0a.89.89,0,0,0-.9.74L32.17,53.81a.9.9,0,0,1-.89.74H22.54A1.79,1.79,0,0,1,20.77,52.45Z"/></svg>