<svg xmlns="http://www.w3.org/2000/svg" viewBox="0 0 64 64" stroke-width="3" stroke="currentColor" fill="none"><path d="M37.09,36.41s8.36-.6,8.87-3.12c0,0-4.13-2.22-3.33-10s-1.74-11.86-6.17-10.65c0,0-6.68-8-12.73-.18,0,0-2.76,2.77-2.56,9.12s-.1,9.57-3.73,11.59a10.21,10.21,0,0,0,8.77,3.22l.29,4.32a.55.55,0,0,1-.43.56L20.4,42.58c-4.09,1.07-7.62,3.4-9.2,7.33L9.79,53.43a1.11,1.11,0,0,0,1,1.53H53.18a1.11,1.11,0,0,0,1-1.53l-1.3-3.23c-1.65-4.09-5-6.49-9.31-7.44l-6.18-1.14A.56.56,0,0,1,37,41Z" stroke-linecap="round"/></svg>