<svg xmlns="http://www.w3.org/2000/svg" viewBox="0 0 64 64" stroke-width="3" stroke="currentColor" fill="none"><rect x="6.57" y="17.07" width="50.86" height="29.87"/><path d="M16.62,16.92a10.05,10.05,0,0,1-10,10"/><path d="M16.91,46.93a10,10,0,0,0-10-10"/><path d="M47.56,16.92a10,10,0,0,0,10,10"/><path d="M47.38,46.93a10,10,0,0,1,10-10"/><path d="M36.91,39H27.35a.08.08,0,0,1-.06-.13c.65-.7,3.78-4.28,2.58-7.5-1.33-3.59-.47-9.3,6-6.65" stroke-linecap="round"/><line x1="25.84" y1="31.43" x2="34.76" y2="31.43" stroke-linecap="round"/></svg>