<svg xmlns="http://www.w3.org/2000/svg" viewBox="0 0 64 64" stroke-width="3" stroke="currentColor" fill="none"><path d="M14,14.27H50a0,0,0,0,1,0,0v19a6,6,0,0,1-6,6H20a6,6,0,0,1-6-6v-19A0,0,0,0,1,14,14.27Z" stroke-linecap="round"/><line x1="11.26" y1="14.27" x2="52.74" y2="14.27" stroke-linecap="round"/><line x1="31.17" y1="39.31" x2="31.17" y2="49.61" stroke-linecap="round"/><line x1="25" y1="49.73" x2="37.34" y2="49.73" stroke-linecap="round"/><path d="M21.63,31.81l6.3-6.49a1,1,0,0,1,1.37-.06l5.58,5.83a1,1,0,0,0,1.47-.17l6.82-10.58" stroke-linecap="round"/></svg>