<svg xmlns="http://www.w3.org/2000/svg" viewBox="0 0 64 64" stroke-width="3" stroke="currentColor" fill="none"><path d="M43,57.82H21a2.32,2.32,0,0,1-2.31-2.31V28.92a1.11,1.11,0,0,1,.37-.84l11.71-11a1.15,1.15,0,0,1,1.55,0l12.65,11a1.17,1.17,0,0,1,.4.87V55.51A2.32,2.32,0,0,1,43,57.82Z" stroke-linecap="round"/><path d="M32,25.26c-4.36,0-7.89-4.27-7.89-9.54S27.64,6.18,32,6.18s7.89,4.27,7.89,9.54" stroke-linecap="round"/><polyline points="26.87 32.04 32.23 40.4 37.62 32.04" stroke-linecap="round"/><line x1="32.24" y1="48.64" x2="32.24" y2="40.4" stroke-linecap="round"/><line x1="26.87" y1="45.01" x2="37.62" y2="45.01" stroke-linecap="round"/><line x1="26.98" y1="40.4" x2="37.48" y2="40.4" stroke-linecap="round"/></svg>