<svg xmlns="http://www.w3.org/2000/svg" viewBox="0 0 64 64" stroke-width="3" stroke="currentColor" fill="none"><path d="M42.45,56.47H21.55a2.19,2.19,0,0,1-2.19-2.19V29.08a1.1,1.1,0,0,1,.34-.8L30.8,17.86a1.1,1.1,0,0,1,1.47,0l12,10.44a1.12,1.12,0,0,1,.37.82V54.28A2.19,2.19,0,0,1,42.45,56.47Z" stroke-linecap="round"/><path d="M32,25.61c-4.13,0-7.48-4.05-7.48-9s3.35-9,7.48-9,7.48,4.05,7.48,9" stroke-linecap="round"/><path d="M26.36,31.68H29c2.62,0,5.51.87,5.51,4.86,0,4.32-3.67,6-7.56,5.53a.23.23,0,0,0-.19.39l8.28,8.89" stroke-linecap="round"/><line x1="37.71" y1="31.68" x2="28.45" y2="31.68" stroke-linecap="round"/><line x1="26.49" y1="36.67" x2="37.77" y2="36.67" stroke-linecap="round"/></svg>