<svg xmlns="http://www.w3.org/2000/svg" viewBox="0 0 64 64" stroke-width="3" stroke="currentColor" fill="none"><path d="M17.34,39.37H14a3.31,3.31,0,0,1-3.31-3.3V20.77A3.31,3.31,0,0,1,14,17.47H50a3.31,3.31,0,0,1,3.31,3.3v15.3A3.31,3.31,0,0,1,50,39.37H47.18" stroke-linecap="round"/><polyline points="17.34 17.47 17.34 10.59 47.18 10.59 47.18 17.47" stroke-linecap="round"/><rect x="17.34" y="32.02" width="29.84" height="21.39" stroke-linecap="round"/><line x1="21.63" y1="37.93" x2="42.1" y2="37.93" stroke-linecap="round"/><line x1="15.54" y1="32.02" x2="49.15" y2="32.02" stroke-linecap="round"/><line x1="21.76" y1="42.72" x2="42.24" y2="42.72" stroke-linecap="round"/><line x1="22.03" y1="47.76" x2="35.93" y2="47.76" stroke-linecap="round"/><circle cx="46.76" cy="24.04" r="1.75" stroke-linecap="round"/></svg>