<svg xmlns="http://www.w3.org/2000/svg" viewBox="0 0 64 64" stroke-width="3" stroke="currentColor" fill="none"><path d="M29.41,51.12H8.56a2.38,2.38,0,0,1-2-3.59l8.1-13.71" stroke-linecap="round"/><path d="M40,51.12h15.4a2.38,2.38,0,0,0,2-3.59l-10-16.86" stroke-linecap="round"/><path d="M19.4,25.73,30,7.88a2.39,2.39,0,0,1,4.1,0l8,13.57" stroke-linecap="round"/><path d="M46,46l-5.85,5a.12.12,0,0,0,0,.17L46,57.28" stroke-linecap="round"/><path d="M16.59,41.41l-1.95-7.47a.12.12,0,0,0-.15-.08l-8,2.58" stroke-linecap="round"/><polyline points="34.47 19.55 42.07 21.49 43.71 13.08" stroke-linecap="round"/></svg>