<svg xmlns="http://www.w3.org/2000/svg" viewBox="0 0 64 64" stroke-width="3" stroke="currentColor" fill="none"><path d="M46.31,56.71H17.69a.1.1,0,0,1-.1-.08L12.52,15.25c0-.06,0-.1.1-.1H51.38c.06,0,.11,0,.1.1L46.41,56.63A.1.1,0,0,1,46.31,56.71Z" stroke-linecap="round"/><path d="M46.34,7.29H17.66a.1.1,0,0,0-.09,0l-5,7.68a.09.09,0,0,0,.09.14H51.32a.09.09,0,0,0,.09-.14l-5-7.68A.1.1,0,0,0,46.34,7.29Z" stroke-linecap="round"/><path d="M29.94,41.56H22.45a1,1,0,0,1-.84-1.46l3.31-5.59" stroke-linecap="round"/><path d="M35.28,41.56h6.27a1,1,0,0,0,.84-1.46l-3.81-6.44" stroke-linecap="round"/><path d="M27,31l4.15-7a1,1,0,0,1,1.66,0l3.27,5.53" stroke-linecap="round"/><path d="M37.86,38.68l-2.78,2.81a.1.1,0,0,0,0,.14l2.78,3" stroke-linecap="round"/><path d="M26.21,38l-1.29-3.48s0,0-.06,0l-4.38.88" stroke-linecap="round"/><polyline points="32.28 28.86 36.1 29.48 37.52 25.82" stroke-linecap="round"/></svg>