<svg xmlns="http://www.w3.org/2000/svg" viewBox="0 0 64 64" stroke-width="3" stroke="currentColor" fill="none"><path d="M52.85,46.71H28.93a1,1,0,0,0-.6.2l-8.84,6.58a1,1,0,0,1-1.61-.81l.05-5a1,1,0,0,0-1-1H11.1a3,3,0,0,1-3-3V11.8a4,4,0,0,1,4-4H52.9a3,3,0,0,1,3,3V43.65A3.06,3.06,0,0,1,52.85,46.71Z"/><path d="M18.8,22.32V39.09h5.34a1.92,1.92,0,0,0,1.91-1.92V24.24a1.92,1.92,0,0,0-1.92-1.92Z"/><path d="M36.42,23.94a22.27,22.27,0,0,0,1.06-6.43c0-3.37-3.72-3-3.72-3s-1.5,7.72-7.71,9.92"/><path d="M34,24h9.79s2.4,0,2.4,1.89-2.34,1.77-2.34,1.77h-.75" stroke-linecap="round"/><path d="M44.05,31.6h-.31s2.53,0,2.53-2-2.53-2-2.53-2" stroke-linecap="round"/><path d="M43.05,35.57h.69s2.53,0,2.53-2-2.53-2-2.53-2" stroke-linecap="round"/><path d="M26.05,37.17l4.85,1.56s1.2.46,5.7.36L41.38,39c1.87,0,3.46-2,1.27-3.41" stroke-linecap="round"/></svg>