<svg xmlns="http://www.w3.org/2000/svg" viewBox="0 0 64 64" stroke-width="3" stroke="currentColor" fill="none"><rect x="7.18" y="16.7" width="50.86" height="29.87"/><path d="M17.22,16.55a10,10,0,0,1-10,10.05"/><path d="M17.51,46.57a10.05,10.05,0,0,0-10-10"/><path d="M48.16,16.55A10.05,10.05,0,0,0,58.21,26.6"/><path d="M48,46.57a10.05,10.05,0,0,1,10-10"/><path d="M28.47,22.3H31c2.49,0,5.23.81,5.23,4.6,0,4.11-3.48,5.68-7.18,5.26a.21.21,0,0,0-.17.36L36.74,41" stroke-linecap="round"/><line x1="39.24" y1="22.3" x2="30.45" y2="22.3" stroke-linecap="round"/><line x1="28.59" y1="27.03" x2="39.3" y2="27.03" stroke-linecap="round"/></svg>