<svg xmlns="http://www.w3.org/2000/svg" viewBox="0 0 64 64" stroke-width="3" stroke="currentColor" fill="none"><path d="M15.68,53.05,8.27,41.89a1.19,1.19,0,0,1,.34-1.66l4.68-3a1.21,1.21,0,0,1,1.64.32l7.56,11a1.2,1.2,0,0,1-.32,1.67l-4.82,3.24A1.2,1.2,0,0,1,15.68,53.05Z" stroke-linecap="round"/><path d="M15.76,38.68l7.8-4.91a2.21,2.21,0,0,1,1.7-.26c2.77.71,11.1,3,14.17,4.08,2.31.81,3.24,3.08,2.31,4.59-1.26,2-3.18,1.8-4.56,1.41a3.62,3.62,0,0,1-.55-.2l-5.46-2.32" stroke-linecap="round"/><path d="M21.81,47.52l2.55-1.46,14.43,4a1.09,1.09,0,0,0,.88-.14c2-1.3,10.71-7.07,15-10.1a2.39,2.39,0,0,0,.3-4,3.1,3.1,0,0,0-3.71-.33c-1.5.84-5.67,3.94-5.67,3.94" stroke-linecap="round"/><polyline points="33.27 7.82 40.37 18.9 47.51 7.82" stroke-linecap="round"/><line x1="40.39" y1="29.82" x2="40.39" y2="18.9" stroke-linecap="round"/><line x1="33.27" y1="23.76" x2="47.51" y2="23.76" stroke-linecap="round"/><line x1="33.41" y1="18.9" x2="47.33" y2="18.9" stroke-linecap="round"/></svg>