<svg xmlns="http://www.w3.org/2000/svg" viewBox="0 0 64 64" stroke-width="3" stroke="currentColor" fill="none"><path d="M15.68,53.05,8.27,41.89a1.19,1.19,0,0,1,.34-1.66l4.68-3a1.21,1.21,0,0,1,1.64.32l7.56,11a1.2,1.2,0,0,1-.32,1.67l-4.82,3.24A1.2,1.2,0,0,1,15.68,53.05Z" stroke-linecap="round"/><path d="M15.76,38.68l7.8-4.91a2.21,2.21,0,0,1,1.7-.26c2.77.71,11.1,3,14.17,4.08,2.31.81,3.24,3.08,2.31,4.59-1.26,2-3.18,1.8-4.56,1.41a3.62,3.62,0,0,1-.55-.2l-5.46-2.32" stroke-linecap="round"/><path d="M21.81,47.52l2.55-1.46,14.43,4a1.09,1.09,0,0,0,.88-.14c2-1.3,10.71-7.07,15-10.1a2.39,2.39,0,0,0,.3-4,3.1,3.1,0,0,0-3.71-.33c-1.5.84-5.67,3.94-5.67,3.94" stroke-linecap="round"/><path d="M45.47,29.4h-12a.09.09,0,0,1-.07-.15c.82-.88,4.75-5.38,3.25-9.44C35,15.3,36,8.13,44.14,11.46" stroke-linecap="round"/><line x1="31.55" y1="19.93" x2="42.77" y2="19.93" stroke-linecap="round"/></svg>