<svg xmlns="http://www.w3.org/2000/svg" viewBox="0 0 64 64" stroke-width="3" stroke="currentColor" fill="none"><path d="M15.08,52.89,8.27,42.64a1.1,1.1,0,0,1,.32-1.53l4.29-2.79a1.11,1.11,0,0,1,1.51.3l7,10.06a1.1,1.1,0,0,1-.29,1.54l-4.44,3A1.1,1.1,0,0,1,15.08,52.89Z" stroke-linecap="round"/><path d="M15.16,39.69l7.17-4.51a2,2,0,0,1,1.56-.24c2.54.65,10.2,2.76,13,3.74,2.13.75,3,2.84,2.13,4.23-1.16,1.86-2.92,1.65-4.19,1.3a4.29,4.29,0,0,1-.5-.19l-5-2.13" stroke-linecap="round"/><path d="M20.72,47.82l2.34-1.34,13.26,3.63a1,1,0,0,0,.81-.13C39,48.78,47,43.49,50.94,40.7A2.2,2.2,0,0,0,51.22,37a2.86,2.86,0,0,0-3.41-.3c-1.39.77-5.22,3.62-5.22,3.62" stroke-linecap="round"/><circle cx="38.09" cy="20.44" r="13" stroke-linecap="round"/><path d="M33.81,13.85h2.08c2,0,4.26.67,4.26,3.76,0,3.35-2.84,4.63-5.85,4.29a.17.17,0,0,0-.14.29l6.4,6.89" stroke-linecap="round"/><line x1="42.6" y1="13.85" x2="35.43" y2="13.85" stroke-linecap="round"/><line x1="33.92" y1="17.72" x2="42.65" y2="17.72" stroke-linecap="round"/></svg>