<svg xmlns="http://www.w3.org/2000/svg" viewBox="0 0 64 64" stroke-width="3" stroke="currentColor" fill="none"><path d="M15.68,52.27,8.27,41.12a1.2,1.2,0,0,1,.34-1.67l4.68-3a1.21,1.21,0,0,1,1.64.32l7.56,11a1.2,1.2,0,0,1-.32,1.67L17.35,52.6A1.2,1.2,0,0,1,15.68,52.27Z" stroke-linecap="round"/><path d="M15.76,37.9l7.8-4.9a2.17,2.17,0,0,1,1.7-.27c2.77.71,11.1,3,14.17,4.08,2.31.81,3.24,3.09,2.31,4.59-1.26,2-3.18,1.81-4.56,1.42l-.55-.2-5.46-2.33" stroke-linecap="round"/><path d="M21.81,46.75l2.55-1.46,14.43,4a1.06,1.06,0,0,0,.88-.14c2-1.3,10.71-7.06,15-10.09a2.4,2.4,0,0,0,.3-4,3.1,3.1,0,0,0-3.71-.33c-1.5.84-5.67,3.94-5.67,3.94" stroke-linecap="round"/><path d="M47.24,27.77A9.23,9.23,0,1,1,45.5,12.05"/><line x1="27.76" y1="18.2" x2="43.13" y2="18.2"/><line x1="27.76" y1="22.89" x2="41.28" y2="22.89"/></svg>