<svg xmlns="http://www.w3.org/2000/svg" viewBox="0 0 64 64" stroke-width="3" stroke="currentColor" fill="none"><path d="M41.24,40.7V54.87a3.06,3.06,0,0,1-3.06,3.06H17a3.06,3.06,0,0,1-3.07-3.06V9.13A3.06,3.06,0,0,1,17,6.07H38.18a3.06,3.06,0,0,1,3.06,3.06l-.11,9.34"/><line x1="22.58" y1="10.34" x2="28.66" y2="10.34" stroke-linecap="round"/><line x1="26.05" y1="53.47" x2="29.09" y2="53.47" stroke-linecap="round"/><line x1="32.44" y1="10.34" x2="32.57" y2="10.34" stroke-linecap="round"/><line x1="13.9" y1="49.36" x2="41.24" y2="49.36"/><line x1="13.9" y1="14.75" x2="41.24" y2="14.75"/><path d="M41.13,18.47,32.67,22a.46.46,0,0,0-.28.43v7.51h0a10.54,10.54,0,0,0,5.14,9l3.76,2.23L45,39a10.55,10.55,0,0,0,5.1-9V22a.46.46,0,0,0-.3-.43l-8.34-3.09A.42.42,0,0,0,41.13,18.47Z"/><polyline points="36.99 30.24 40.07 32.56 45.5 24.94"/></svg>