<svg xmlns="http://www.w3.org/2000/svg" viewBox="0 0 64 64" stroke-width="3" stroke="currentColor" fill="none"><path d="M55.62,22.1c-1.44,7.45-6.18,13-10.91,18.49A73.46,73.46,0,0,1,37,47.94a12.8,12.8,0,0,1-5.69,2.74,5.57,5.57,0,0,1-6-2.24,20.35,20.35,0,0,1-3.26-7.07c-1.23-4.21-2.45-8.42-3.81-12.59a16.64,16.64,0,0,0-2-4c-.9-1.35-1.7-1.41-3.11-.61-.81.46-1.61,1-2.45,1.47L8.38,22.94c3.55-2.76,7-5.53,10.57-8.16a6.3,6.3,0,0,1,4.9-1.41,4.92,4.92,0,0,1,4.08,3.35c.74,2.27,1.16,4.64,1.7,7,.78,3.39,1.5,6.8,2.33,10.18a8.57,8.57,0,0,0,1.13,2.34c.74,1.15,1.61,1.32,2.6.38a21.07,21.07,0,0,0,2.81-3.23c1.54-2.19,3.07-4.42,3.56-7.14.45-2.49-.82-3.94-3.35-3.79-1,.06-2.05.3-3.07.46.85-5.33,6.09-9.84,11.68-10a14.87,14.87,0,0,1,2.91.14,5.87,5.87,0,0,1,5.18,5.36c.05.27.14.52.21.78Z" stroke-linecap="round"/></svg>