<svg xmlns="http://www.w3.org/2000/svg" viewBox="0 0 64 64" stroke-width="3" stroke="currentColor" fill="none"><path d="M31.49,12h1c.85.13,1.7.21,2.54.38a10.34,10.34,0,0,1,8.42,10.19c0,1.82-.12,3.64-.18,5.46,0,.61,0,.68.62.83a3.76,3.76,0,0,0,2.36-.33,2.37,2.37,0,0,1,1.95.07,1,1,0,0,1,.28,1.79,8,8,0,0,1-1.74,1c-.59.28-1.24.44-1.82.72a1.89,1.89,0,0,0-1,2.9,18.1,18.1,0,0,0,1.55,2.66,11.71,11.71,0,0,0,7.17,5,1,1,0,0,1,.62.37.66.66,0,0,1-.28.86,5.83,5.83,0,0,1-1.33.74c-1.1.34-2.22.61-3.35.84a1,1,0,0,0-.89.79c-.11.5-.24,1-.37,1.49s-.39.65-.93.6c-1.24-.12-2.48-.18-3.72-.27A5.29,5.29,0,0,0,39,49.08c-.82.55-1.62,1.11-2.46,1.63A8.52,8.52,0,0,1,32.22,52a9,9,0,0,1-5.43-1.71c-.8-.54-1.59-1.11-2.43-1.58a4.72,4.72,0,0,0-1.79-.62,15.79,15.79,0,0,0-4.7.22c-.49.1-.75-.08-.88-.59s-.27-1-.37-1.45-.4-.73-.94-.85c-1.27-.28-2.53-.63-3.77-1a2.75,2.75,0,0,1-1.05-.75.59.59,0,0,1,.38-1,8.4,8.4,0,0,0,1-.24c3.94-1.26,6.41-4,8-7.72a1.71,1.71,0,0,0-.89-2.4c-.67-.36-1.42-.55-2.11-.88a8.66,8.66,0,0,1-1.8-1,.94.94,0,0,1,.23-1.65,2.31,2.31,0,0,1,2-.16,3.93,3.93,0,0,0,2.41.35c.6-.15.64-.22.62-.83-.07-1.7-.19-3.39-.17-5.09a11.59,11.59,0,0,1,.37-3.33,10.33,10.33,0,0,1,7.64-7.12A28.42,28.42,0,0,1,31.49,12Z" stroke-linecap="round"/></svg>