<svg xmlns="http://www.w3.org/2000/svg" viewBox="0 0 64 64" stroke-width="3" stroke="currentColor" fill="none"><path d="M56.58,29.4V19.94a6.41,6.41,0,0,0-6.41-6.4H15.42A6.41,6.41,0,0,0,9,19.94V29.4"/><path d="M58.69,29.4h-2A1.55,1.55,0,0,0,55.14,31s0,4,0,4.92c0,.38-1,.2-2.4.15H12.85c-.77,0-2.38.28-2.38,0,0-1.49,0-5,0-5A1.56,1.56,0,0,0,8.9,29.4h-2A1.56,1.56,0,0,0,5.34,31V46A1.16,1.16,0,0,0,6.5,47.16H59.08A1.16,1.16,0,0,0,60.25,46V31A1.56,1.56,0,0,0,58.69,29.4Z"/><line x1="11.86" y1="51.68" x2="11.86" y2="47.16"/><line x1="52.97" y1="51.68" x2="52.97" y2="47.16"/></svg>