<svg xmlns="http://www.w3.org/2000/svg" viewBox="0 0 64 64" stroke-width="3" stroke="currentColor" fill="none"><path d="M43.21,54.62H12a2.93,2.93,0,0,1-3-2.84V26.19"/><line x1="49.01" y1="26.36" x2="49.01" y2="37.37"/><polyline points="23.26 54.55 23.26 37.48 34.84 37.48 34.84 54.55"/><path d="M5.45,18.2s-1.1,7.76,6.45,9a7.15,7.15,0,0,0,6.1-2A7.43,7.43,0,0,0,29,25a7.37,7.37,0,0,0,5,2.49,11.77,11.77,0,0,0,5.89-2.15,6.67,6.67,0,0,0,4.68,2.15,8,8,0,0,0,7.92-9.3L47.79,8.08a1,1,0,0,0-.94-.66H11a1,1,0,0,0-.94.66Z"/><line x1="5.45" y1="18.2" x2="52.54" y2="18.2"/><line x1="18.05" y1="18.2" x2="18.05" y2="7.42"/><line x1="29.05" y1="18.2" x2="29.05" y2="7.42"/><line x1="40.02" y1="18.2" x2="40.02" y2="7.42"/><circle cx="49.01" cy="46.97" r="9.6"/><polyline points="49.01 40.86 49.01 47.27 52.58 50.01"/></svg>