<svg xmlns="http://www.w3.org/2000/svg" viewBox="0 0 64 64" stroke-width="3" stroke="currentColor" fill="none"><line x1="48.57" y1="25.2" x2="33.68" y2="29.18" stroke-linecap="round"/><path d="M25.9,31.27l-3.81,1a1.14,1.14,0,0,1-1.39-.8L18,21.58a1.14,1.14,0,0,1,.81-1.39L45.32,13.1" stroke-linecap="round"/><rect x="46.74" y="9.32" width="7.12" height="17.17" stroke-linecap="round" transform="translate(-2.92 13.63) rotate(-15)"/><path d="M20.08,30.64l-4.4,1.18A1.14,1.14,0,0,1,14.29,31l-1.47-5.52a1.13,1.13,0,0,1,.8-1.39L18,22.92" stroke-linecap="round"/><polyline points="14.19 30.73 9.36 32.02 8.04 27.09 12.87 25.79" stroke-linecap="round"/><circle cx="29.79" cy="31.41" r="3.9" stroke-linecap="round"/><polyline points="16.14 55.65 18.21 55.65 28.15 34.94" stroke-linecap="square"/><polyline points="43.41 55.65 41.35 55.65 31.41 34.94" stroke-linecap="square"/><line x1="29.79" y1="55.65" x2="29.79" y2="35.31" stroke-linecap="square"/></svg>