<svg xmlns="http://www.w3.org/2000/svg" viewBox="0 0 64 64" stroke-width="3" stroke="currentColor" fill="none"><path d="M26.19,31c1.13,2,3.48,5.67,7.38,7.21a2.16,2.16,0,0,0,1.88-.11l2.34-1.27a3.66,3.66,0,0,1,3.37-.07l2.94,1.83a2,2,0,0,1,.69,2.87c-.69,1.37-.54,1.11-.74,1.47-.58,1.05-1.75,3-4.38,2.8-2.27-.2-19.5-2.32-21-20.49a2.72,2.72,0,0,1,0-.28,6.45,6.45,0,0,1,1.76-4.17,7,7,0,0,1,1.66-1.34c.73-.43,2.3-1.2,3.37.45s1.83,2.83,1.83,2.83a3.57,3.57,0,0,1,.11,3.65l-1.2,2A2.62,2.62,0,0,0,26.19,31Z"/><circle cx="32" cy="32" r="26.01"/></svg>