<svg xmlns="http://www.w3.org/2000/svg" viewBox="0 0 64 64" stroke-width="3" stroke="currentColor" fill="none"><path d="M35.09,17.29V9.59A1.08,1.08,0,0,0,34,8.51H27.39a13.86,13.86,0,0,1-9.28,10.85v5.4a1.07,1.07,0,0,0,1.07,1.07h3.51l.06,17.94S22,54.85,36,55.44c0,0,7,.64,9.71-2.71a.73.73,0,0,0,.21-.44V46a.53.53,0,0,0-.79-.47,8.12,8.12,0,0,1-5.51.62c-3.47-.95-4.47-1.87-4.52-4.22L35.1,27A1.07,1.07,0,0,1,36.17,26l8.65,0a1.07,1.07,0,0,0,1.07-1.07V19.42a1.07,1.07,0,0,0-1.07-1.08l-8.66,0A1.07,1.07,0,0,1,35.09,17.29Z"/></svg>