<svg xmlns="http://www.w3.org/2000/svg" viewBox="0 0 64 64" stroke-width="3" stroke="currentColor" fill="none"><path d="M14.89,7.39H49.11a2,2,0,0,1,2,2V56.61a0,0,0,0,1,0,0H12.87a0,0,0,0,1,0,0V9.4A2,2,0,0,1,14.89,7.39Z" stroke-linecap="round"/><circle cx="32.08" cy="37.07" r="13.89" stroke-linecap="round"/><line x1="14.64" y1="17.44" x2="51.06" y2="17.44" stroke-linecap="round"/><path d="M18.46,37.52l1.88-.93a11.64,11.64,0,0,1,10.31,0l1.92,1,1.5.72a11.61,11.61,0,0,0,11.1-.51l.34-.21" stroke-linecap="round"/><polyline points="17.75 12.21 17.75 12.21 18.25 12.21" stroke-linecap="round"/><polyline points="22.28 12.21 22.28 12.21 22.78 12.21" stroke-linecap="round"/></svg>